<?xml version="1.0" encoding="utf-8"?>
<!-- Generator: Adobe Illustrator 26.1.0, SVG Export Plug-In . SVG Version: 6.00 Build 0)  -->
<svg version="1.1" id="Object" xmlns="http://www.w3.org/2000/svg" xmlns:xlink="http://www.w3.org/1999/xlink" x="0px" y="0px"
	 viewBox="0 0 1122 1122" style="enable-background:new 0 0 1122 1122;" xml:space="preserve">
<g>
	<path d="M840.93,425.73V410.7h-59.5v-37.2c0-18.19-14.74-32.94-32.94-32.94h-37.21v-59.5h-15.03v59.5h-32.57v-59.5h-15.02v59.5
		H616.1v-59.5h-15.03v59.5H568.5v-59.5h-15.03v59.5h-32.57v-59.5h-15.03v59.5h-32.55v-59.5H458.3v59.5h-32.57v-59.5H410.7v59.5
		h-37.2c-18.19,0-32.94,14.75-32.94,32.94v37.2h-59.5v15.03h59.5v32.56h-59.5v15.04h59.5v32.56h-59.5v15.03h59.5v32.57h-59.5v15.03
		h59.5v32.57h-59.5v15.03h59.5v32.57h-59.5v15.03h59.5v32.56h-59.5v15.04h59.5v37.2c0,18.19,14.74,32.93,32.94,32.93h37.2v59.5
		h15.03v-59.5h32.57v59.5h15.03v-59.5h32.55v59.5h15.03v-59.5h32.57v59.5h15.03v-59.5h32.57v59.5h15.03v-59.5h32.56v59.5h15.02
		v-59.5h32.57v59.5h15.03v-59.5h37.21c18.19,0,32.94-14.74,32.94-32.93v-37.2h59.5v-15.04h-59.5v-32.56h59.5v-15.03h-59.5v-32.57
		h59.5v-15.03h-59.5v-32.57h59.5v-15.03h-59.5v-32.57h59.5v-15.03h-59.5v-32.56h59.5v-15.04h-59.5v-32.56H840.93z M746.36,746.37
		H375.62V375.63h370.74V746.37z"/>
</g>
<path d="M449.41,574.68c-10.31,0-18.71,7.73-19.96,17.69h-39.81l0,0h-44v5.01H420l0,0h9.45c1.25,9.96,9.65,17.69,19.96,17.69
	c11.15,0,20.18-9.04,20.18-20.2C469.6,583.72,460.57,574.68,449.41,574.68z"/>
<path d="M449.41,508.68c-10.31,0-18.71,7.73-19.96,17.69h-39.81l0,0h-44v5.01H420l0,0h9.45c1.25,9.96,9.65,17.69,19.96,17.69
	c11.15,0,20.18-9.04,20.18-20.2C469.6,517.72,460.57,508.68,449.41,508.68z"/>
<path d="M673.82,549.08c10.31,0,18.71-7.73,19.96-17.69h39.81l0,0h44v-5.01h-74.36l0,0h-9.45c-1.25-9.96-9.65-17.69-19.96-17.69
	c-11.15,0-20.18,9.04-20.18,20.2C653.64,540.04,662.67,549.08,673.82,549.08z"/>
<path d="M673.82,615.08c10.31,0,18.71-7.73,19.96-17.69h39.81l0,0h44v-5.01h-74.36l0,0h-9.45c-1.25-9.96-9.65-17.69-19.96-17.69
	c-11.15,0-20.18,9.04-20.18,20.2C653.64,606.04,662.67,615.08,673.82,615.08z"/>
<path d="M574.42,674.08c0,10.31,7.73,18.71,17.69,19.96v39.81l0,0v44h5.01V703.5l0,0v-9.45c9.96-1.25,17.69-9.65,17.69-19.96
	c0-11.15-9.04-20.18-20.2-20.18C583.46,653.9,574.42,662.93,574.42,674.08z"/>
<path d="M508.42,674.08c0,10.31,7.73,18.71,17.69,19.96v39.81l0,0v44h5.01V703.5l0,0v-9.45c9.96-1.25,17.69-9.65,17.69-19.96
	c0-11.15-9.04-20.18-20.2-20.18C517.46,653.9,508.42,662.93,508.42,674.08z"/>
<path d="M548.82,449.67c0-10.31-7.73-18.71-17.69-19.96V389.9l0,0v-44h-5.01v74.36l0,0v9.45c-9.96,1.25-17.69,9.65-17.69,19.96
	c0,11.15,9.04,20.18,20.2,20.18C539.78,469.85,548.82,460.83,548.82,449.67z"/>
<path d="M614.82,449.67c0-10.31-7.73-18.71-17.69-19.96V389.9l0,0v-44h-5.01v74.36l0,0v9.45c-9.96,1.25-17.69,9.65-17.69,19.96
	c0,11.15,9.04,20.18,20.2,20.18C605.78,469.85,614.82,460.83,614.82,449.67z"/>
<path d="M606.83,618h-90.67C510,618,505,613,505,606.83v-90.67c0-6.17,5-11.17,11.17-11.17h90.67c6.17,0,11.17,5,11.17,11.17v90.67
	C618,613,613,618,606.83,618z"/>
</svg>
