<?xml version="1.0" encoding="utf-8"?>
<!-- Generator: Adobe Illustrator 26.1.0, SVG Export Plug-In . SVG Version: 6.00 Build 0)  -->
<svg version="1.1" id="Object" xmlns="http://www.w3.org/2000/svg" xmlns:xlink="http://www.w3.org/1999/xlink" x="0px" y="0px"
	 viewBox="0 0 1122 1122" style="enable-background:new 0 0 1122 1122;" xml:space="preserve">
<g>
	<path d="M542.92,523.66c-1.11,1.6-2.93,2.62-4.89,2.72c-1.91,0.11-3.87-0.73-5.13-2.19c-18.8-21.73-41.6-34.59-67.78-38.22
		c-2.86-0.4-5.8-0.69-8.74-0.86c-0.75-0.04-1.41,0.37-1.71,1.04c-0.29,0.67-0.14,1.46,0.39,1.96c18.63,17.91,53.28,56.42,76,113.1
		c0.24,0.6,0.8,1.02,1.44,1.09c0.06,0.01,0.12,0.01,0.18,0.01c0.58,0,1.13-0.29,1.45-0.78c39.38-58.96,92.07-133.14,150.52-183.78
		c0.65-0.56,0.79-1.52,0.34-2.25c-0.46-0.73-1.37-1.02-2.17-0.68C593.93,452.69,547.88,516.51,542.92,523.66z"/>
	<path d="M689.13,740.33l0.74-0.5c6.26-4.53,8.12-9.16,8.46-10.71l-69.18-96.42c-0.06,0.05-0.12,0.1-0.18,0.15
		c-3.88,3.33-7.42,6.12-10.79,8.53c-3.04,2.18-6.4,4.36-10.54,6.84l69.07,96.29c0.05,0.01,0.09,0.01,0.15,0.02
		c0.24,0.03,0.52,0.04,0.82,0.04C680.9,744.57,685.4,742.9,689.13,740.33z"/>
	<path d="M659.19,460.63l-0.92-1.92l-1.5,1.51c-4.55,4.59-9.19,9.53-13.79,14.66l-0.63,0.7l0.36,0.87
		c7.91,19.26,10.28,40.39,6.84,61.13c-4.94,29.71-21.15,55.72-45.64,73.23c-19.15,13.69-41.68,20.96-65.16,21.02h-0.3
		c-4.33,0-8.7-0.25-12.98-0.75c-31.61-3.67-60.33-20.59-78.8-46.42c-36.15-50.56-24.42-121.1,26.13-157.25
		c19.17-13.7,41.7-20.97,65.18-21.04h0.3c4.32,0,8.69,0.25,12.98,0.75c23.86,2.77,46.69,13.37,64.26,29.85l0.84,0.79l0.98-0.61
		c5.44-3.41,11.08-6.68,16.76-9.72l1.75-0.94l-1.38-1.43c-21.65-22.37-50.63-36.66-81.61-40.26c-5.14-0.6-10.37-0.9-15.54-0.9
		l-0.38,0c-28.08,0.08-55.02,8.77-77.94,25.14l-0.1,0.07c-29.34,20.96-48.76,52.11-54.67,87.7c-5.91,35.59,2.39,71.34,23.37,100.68
		c22.12,30.92,56.52,51.18,94.38,55.57c5.13,0.6,10.36,0.9,15.55,0.9h0.38c19.9-0.05,39.1-4.38,57.05-12.85
		c7.44-3.51,14.51-7.65,21.01-12.31c6.87-4.9,13.38-10.56,19.37-16.84c20.12-21.12,32.61-47.64,36.11-76.69
		C674.55,509.59,670.31,483.77,659.19,460.63z"/>
</g>
</svg>
